<?xml version="1.0" encoding="UTF-8"?>
<svg id="Layer_1" data-name="Layer 1" xmlns="http://www.w3.org/2000/svg" version="1.1" viewBox="0 0 1176.9 328.8">
  <defs>
    <style>
      .cls-1, .cls-2 {
        fill: #000;
      }

      .cls-1, .cls-3 {
        stroke-width: 0px;
      }

      .cls-4 {
        font-family: BreeSerif-BoldItalic, 'Bree Serif';
        font-size: 203.2px;
        font-style: italic;
        font-weight: 700;
      }

      .cls-5, .cls-3 {
        fill: #2366f9;
      }
    </style>
  </defs>
  <circle class="cls-3" cx="158.9" cy="41.6" r="27.1"/>
  <circle class="cls-3" cx="217.3" cy="20.5" r="20.5"/>
  <text class="cls-4" transform="translate(188.8 268.3)"><tspan class="cls-2" x="0" y="0">Science</tspan><tspan class="cls-5" x="701.3" y="0">UX</tspan></text>
  <path class="cls-1" d="M181.8,286.5l-34.3-93.2c-.7-1.8-.8-3.8-.5-5.7l8.2-47.5c11.4-1.1,21.1-9.7,23.1-21.6h0c2.5-14.2-7.1-27.8-21.3-30.2l-2-.3c-.6-.2-1.3-.4-1.9-.5l-53.4-9.2c-.7-.1-1.3-.2-2-.2l-2-.3c-14.2-2.5-27.8,7.1-30.2,21.3h0c-2,11.8,4.2,23.2,14.6,28.1l-8.2,47.5c-.3,1.9-1.2,3.7-2.4,5.2L5.9,256.2c-12.5,15-4.1,37.8,15.1,41.1l38,6.6c.7-.5,1.5-.7,2.3-.5l.8-4.5c.6-3.2.5-6.5-.3-9.6-.7-3.1-2.1-6.1-4.1-8.6-3.8-4.7-6.7-10.2-8.6-16.2l-8.2-26.3-.3-.8c-.2-.5-.3-1.1-.3-1.6,0-.2,0-.5,0-.7,0-.3,0-.6,0-.9,0-.1,0-.2.1-.3.8-2.8,3.5-4.9,6.6-4.4,0,0,.2,0,.3,0,0,0,.1,0,.2,0,.4,0,.9.2,1.3.3.4.1.9.2,1.3.3.5.2,1,.4,1.4.6.4.2.8.3,1.2.5.5.2.9.5,1.4.8.4.2.8.4,1.1.7.5.3.9.7,1.4,1,.3.3.7.5,1,.8.4.4.9.8,1.3,1.2.2.2.4.3.6.5,0,0,0,0,0,0,.1.1.2.2.3.3.4.4.8.9,1.2,1.3.3.3.6.6.8.9.4.5.9,1,1.3,1.6.2.3.4.5.6.8.6.8,1.2,1.6,1.8,2.4,0,.1.2.2.3.2.2,0,.4,0,.6-.1l.2-.3h0s0,0,0,0l3.5-20.2,2.1-12.3,4.8-27.6,1.2-6.8c.2-1.4.7-2.6,1.4-3.7.7-1.1,1.6-2,2.7-2.7.7-.5,1.5-.8,2.3-1.1,1.6-.5,3.4-.7,5.2-.3,4.9,1.1,8.1,6.6,7.3,11.6h0s-1.2,6.8-1.2,6.8l-5,28.7v.4c.5-1.6,1.3-3.1,2.4-4.3,2.3-2.3,5.6-3.4,9-2.6h0c1.8.4,3.4,1.5,4.7,2.8.8.9,1.5,2,1.9,3.2.7,1.8.9,3.7.6,5.5h0s-.6,3.2-.6,3.2h0c1.1-5.1,6.2-8.5,11.6-7.3,1.8.4,3.4,1.5,4.7,2.8,1.6,1.9,2.6,4.3,2.7,6.8,0,.6,0,1.3-.1,1.9l-1,5.7h0c1.3-4.9,6.2-8,11.3-7h0c.1,0,.2,0,.3,0,5,1.2,8,6.5,7.1,11.6l-.5,3.1-.7,3.8-4.8,27.9s0,0,0,0h0c0,.1,0,.2,0,.3-.5,2.5-1.2,4.9-2.1,7.1,0,0,0,0,0,0,0,.1-.1.2-.2.4-.5,1-.9,2-1.5,3-.4.7-.8,1.3-1.3,2-.3.4-.5.8-.7,1.2-3.4,4.7-6.2,9.8-7.9,15.3-.6,1.8-1,3.7-1.4,5.6l-1,5.9h0c.8.1,1.6.6,2,1.3l28.1,4.8c19.2,3.3,34.8-15.4,28.1-33.7Z"/>
</svg>